<mxfile host="app.diagrams.net" modified="2024-06-05T04:18:13.186Z" agent="Mozilla/5.0 (Windows NT 10.0; Win64; x64) AppleWebKit/537.36 (KHTML, like Gecko) Chrome/125.0.0.0 Safari/537.36" etag="PdBTbkW_c7lrCrIa9KIc" version="24.4.9" type="device">
  <diagram id="C5RBs43oDa-KdzZeNtuy" name="Page-1">
    <mxGraphModel dx="989" dy="1707" grid="1" gridSize="10" guides="1" tooltips="1" connect="1" arrows="1" fold="1" page="1" pageScale="1" pageWidth="827" pageHeight="1169" math="0" shadow="0">
      <root>
        <mxCell id="WIyWlLk6GJQsqaUBKTNV-0" />
        <mxCell id="WIyWlLk6GJQsqaUBKTNV-1" parent="WIyWlLk6GJQsqaUBKTNV-0" />
        <mxCell id="EBsP6sKBoB6UXxb4G_4H-19" value="Decorator&lt;div&gt;(Is in Attack range)&lt;/div&gt;" style="rounded=1;whiteSpace=wrap;html=1;verticalAlign=top;" vertex="1" parent="WIyWlLk6GJQsqaUBKTNV-1">
          <mxGeometry x="780" y="340" width="150" height="130" as="geometry" />
        </mxCell>
        <mxCell id="EBsP6sKBoB6UXxb4G_4H-3" style="edgeStyle=orthogonalEdgeStyle;rounded=0;orthogonalLoop=1;jettySize=auto;html=1;" edge="1" parent="WIyWlLk6GJQsqaUBKTNV-1" source="EBsP6sKBoB6UXxb4G_4H-0" target="EBsP6sKBoB6UXxb4G_4H-1">
          <mxGeometry relative="1" as="geometry" />
        </mxCell>
        <mxCell id="EBsP6sKBoB6UXxb4G_4H-4" style="edgeStyle=orthogonalEdgeStyle;rounded=0;orthogonalLoop=1;jettySize=auto;html=1;" edge="1" parent="WIyWlLk6GJQsqaUBKTNV-1" source="EBsP6sKBoB6UXxb4G_4H-0" target="EBsP6sKBoB6UXxb4G_4H-2">
          <mxGeometry relative="1" as="geometry" />
        </mxCell>
        <mxCell id="EBsP6sKBoB6UXxb4G_4H-0" value="Root" style="rounded=1;whiteSpace=wrap;html=1;" vertex="1" parent="WIyWlLk6GJQsqaUBKTNV-1">
          <mxGeometry x="340" y="20" width="120" height="60" as="geometry" />
        </mxCell>
        <mxCell id="EBsP6sKBoB6UXxb4G_4H-7" style="edgeStyle=orthogonalEdgeStyle;rounded=0;orthogonalLoop=1;jettySize=auto;html=1;" edge="1" parent="WIyWlLk6GJQsqaUBKTNV-1" source="EBsP6sKBoB6UXxb4G_4H-1" target="EBsP6sKBoB6UXxb4G_4H-5">
          <mxGeometry relative="1" as="geometry">
            <Array as="points">
              <mxPoint x="310" y="250" />
              <mxPoint x="140" y="250" />
            </Array>
          </mxGeometry>
        </mxCell>
        <mxCell id="EBsP6sKBoB6UXxb4G_4H-8" style="edgeStyle=orthogonalEdgeStyle;rounded=0;orthogonalLoop=1;jettySize=auto;html=1;" edge="1" parent="WIyWlLk6GJQsqaUBKTNV-1" source="EBsP6sKBoB6UXxb4G_4H-1" target="EBsP6sKBoB6UXxb4G_4H-6">
          <mxGeometry relative="1" as="geometry" />
        </mxCell>
        <mxCell id="EBsP6sKBoB6UXxb4G_4H-11" style="edgeStyle=orthogonalEdgeStyle;rounded=0;orthogonalLoop=1;jettySize=auto;html=1;" edge="1" parent="WIyWlLk6GJQsqaUBKTNV-1" source="EBsP6sKBoB6UXxb4G_4H-1" target="EBsP6sKBoB6UXxb4G_4H-10">
          <mxGeometry relative="1" as="geometry" />
        </mxCell>
        <mxCell id="EBsP6sKBoB6UXxb4G_4H-1" value="Control Flow" style="rounded=1;whiteSpace=wrap;html=1;" vertex="1" parent="WIyWlLk6GJQsqaUBKTNV-1">
          <mxGeometry x="250" y="140" width="120" height="60" as="geometry" />
        </mxCell>
        <mxCell id="EBsP6sKBoB6UXxb4G_4H-2" value="Execution" style="rounded=1;whiteSpace=wrap;html=1;" vertex="1" parent="WIyWlLk6GJQsqaUBKTNV-1">
          <mxGeometry x="434" y="140" width="120" height="60" as="geometry" />
        </mxCell>
        <mxCell id="EBsP6sKBoB6UXxb4G_4H-5" value="Execution" style="rounded=1;whiteSpace=wrap;html=1;" vertex="1" parent="WIyWlLk6GJQsqaUBKTNV-1">
          <mxGeometry x="80" y="310" width="120" height="60" as="geometry" />
        </mxCell>
        <mxCell id="EBsP6sKBoB6UXxb4G_4H-6" value="Execution" style="rounded=1;whiteSpace=wrap;html=1;" vertex="1" parent="WIyWlLk6GJQsqaUBKTNV-1">
          <mxGeometry x="370" y="310" width="120" height="60" as="geometry" />
        </mxCell>
        <mxCell id="EBsP6sKBoB6UXxb4G_4H-9" value="Root : 최상단 노드&lt;div&gt;Control Flow : 흐름 제어 노드 (루트와 말단 노드 사이에 있는 노드들)&lt;/div&gt;&lt;div&gt;Execution : 실행할 노드 (말단 노드)&lt;/div&gt;" style="rounded=0;whiteSpace=wrap;html=1;align=left;" vertex="1" parent="WIyWlLk6GJQsqaUBKTNV-1">
          <mxGeometry x="10" y="20" width="220" height="80" as="geometry" />
        </mxCell>
        <mxCell id="EBsP6sKBoB6UXxb4G_4H-10" value="Execution" style="rounded=1;whiteSpace=wrap;html=1;" vertex="1" parent="WIyWlLk6GJQsqaUBKTNV-1">
          <mxGeometry x="230" y="310" width="120" height="60" as="geometry" />
        </mxCell>
        <mxCell id="EBsP6sKBoB6UXxb4G_4H-32" style="edgeStyle=orthogonalEdgeStyle;rounded=0;orthogonalLoop=1;jettySize=auto;html=1;entryX=0.5;entryY=0;entryDx=0;entryDy=0;" edge="1" parent="WIyWlLk6GJQsqaUBKTNV-1" source="EBsP6sKBoB6UXxb4G_4H-14" target="EBsP6sKBoB6UXxb4G_4H-29">
          <mxGeometry relative="1" as="geometry" />
        </mxCell>
        <mxCell id="EBsP6sKBoB6UXxb4G_4H-14" value="Root" style="rounded=1;whiteSpace=wrap;html=1;" vertex="1" parent="WIyWlLk6GJQsqaUBKTNV-1">
          <mxGeometry x="870" y="10" width="120" height="60" as="geometry" />
        </mxCell>
        <mxCell id="EBsP6sKBoB6UXxb4G_4H-15" value="Seek" style="rounded=1;whiteSpace=wrap;html=1;" vertex="1" parent="WIyWlLk6GJQsqaUBKTNV-1">
          <mxGeometry x="650" y="340" width="120" height="60" as="geometry" />
        </mxCell>
        <mxCell id="EBsP6sKBoB6UXxb4G_4H-16" value="Rest" style="rounded=1;whiteSpace=wrap;html=1;" vertex="1" parent="WIyWlLk6GJQsqaUBKTNV-1">
          <mxGeometry x="940" y="340" width="120" height="60" as="geometry" />
        </mxCell>
        <mxCell id="EBsP6sKBoB6UXxb4G_4H-17" value="Patrol" style="rounded=1;whiteSpace=wrap;html=1;" vertex="1" parent="WIyWlLk6GJQsqaUBKTNV-1">
          <mxGeometry x="1090" y="340" width="120" height="60" as="geometry" />
        </mxCell>
        <mxCell id="EBsP6sKBoB6UXxb4G_4H-18" value="Attack" style="rounded=1;whiteSpace=wrap;html=1;" vertex="1" parent="WIyWlLk6GJQsqaUBKTNV-1">
          <mxGeometry x="795" y="400" width="120" height="60" as="geometry" />
        </mxCell>
        <mxCell id="EBsP6sKBoB6UXxb4G_4H-23" style="edgeStyle=orthogonalEdgeStyle;rounded=0;orthogonalLoop=1;jettySize=auto;html=1;" edge="1" parent="WIyWlLk6GJQsqaUBKTNV-1" source="EBsP6sKBoB6UXxb4G_4H-21" target="EBsP6sKBoB6UXxb4G_4H-15">
          <mxGeometry relative="1" as="geometry" />
        </mxCell>
        <mxCell id="EBsP6sKBoB6UXxb4G_4H-24" style="edgeStyle=orthogonalEdgeStyle;rounded=0;orthogonalLoop=1;jettySize=auto;html=1;entryX=0.5;entryY=0;entryDx=0;entryDy=0;" edge="1" parent="WIyWlLk6GJQsqaUBKTNV-1" source="EBsP6sKBoB6UXxb4G_4H-21" target="EBsP6sKBoB6UXxb4G_4H-19">
          <mxGeometry relative="1" as="geometry" />
        </mxCell>
        <mxCell id="EBsP6sKBoB6UXxb4G_4H-21" value="Parallel&lt;div&gt;(SuccessPolicy&amp;nbsp;&lt;/div&gt;&lt;div&gt;: RequiredOne)&lt;/div&gt;" style="rounded=1;whiteSpace=wrap;html=1;" vertex="1" parent="WIyWlLk6GJQsqaUBKTNV-1">
          <mxGeometry x="720" y="200" width="120" height="60" as="geometry" />
        </mxCell>
        <mxCell id="EBsP6sKBoB6UXxb4G_4H-22" value="Success,&lt;div&gt;Failure,&lt;/div&gt;&lt;div&gt;Running&lt;/div&gt;" style="rounded=1;whiteSpace=wrap;html=1;" vertex="1" parent="WIyWlLk6GJQsqaUBKTNV-1">
          <mxGeometry x="580" y="5" width="120" height="90" as="geometry" />
        </mxCell>
        <mxCell id="EBsP6sKBoB6UXxb4G_4H-27" style="edgeStyle=orthogonalEdgeStyle;rounded=0;orthogonalLoop=1;jettySize=auto;html=1;" edge="1" parent="WIyWlLk6GJQsqaUBKTNV-1" source="EBsP6sKBoB6UXxb4G_4H-26" target="EBsP6sKBoB6UXxb4G_4H-16">
          <mxGeometry relative="1" as="geometry">
            <Array as="points">
              <mxPoint x="1070" y="300" />
              <mxPoint x="1000" y="300" />
            </Array>
          </mxGeometry>
        </mxCell>
        <mxCell id="EBsP6sKBoB6UXxb4G_4H-28" style="edgeStyle=orthogonalEdgeStyle;rounded=0;orthogonalLoop=1;jettySize=auto;html=1;" edge="1" parent="WIyWlLk6GJQsqaUBKTNV-1" source="EBsP6sKBoB6UXxb4G_4H-26" target="EBsP6sKBoB6UXxb4G_4H-17">
          <mxGeometry relative="1" as="geometry" />
        </mxCell>
        <mxCell id="EBsP6sKBoB6UXxb4G_4H-26" value="Random Selector" style="rounded=1;whiteSpace=wrap;html=1;" vertex="1" parent="WIyWlLk6GJQsqaUBKTNV-1">
          <mxGeometry x="1010" y="200" width="120" height="60" as="geometry" />
        </mxCell>
        <mxCell id="EBsP6sKBoB6UXxb4G_4H-30" style="edgeStyle=orthogonalEdgeStyle;rounded=0;orthogonalLoop=1;jettySize=auto;html=1;" edge="1" parent="WIyWlLk6GJQsqaUBKTNV-1" source="EBsP6sKBoB6UXxb4G_4H-29" target="EBsP6sKBoB6UXxb4G_4H-21">
          <mxGeometry relative="1" as="geometry">
            <Array as="points">
              <mxPoint x="930" y="180" />
              <mxPoint x="780" y="180" />
            </Array>
          </mxGeometry>
        </mxCell>
        <mxCell id="EBsP6sKBoB6UXxb4G_4H-31" style="edgeStyle=orthogonalEdgeStyle;rounded=0;orthogonalLoop=1;jettySize=auto;html=1;" edge="1" parent="WIyWlLk6GJQsqaUBKTNV-1" source="EBsP6sKBoB6UXxb4G_4H-29" target="EBsP6sKBoB6UXxb4G_4H-26">
          <mxGeometry relative="1" as="geometry">
            <Array as="points">
              <mxPoint x="930" y="180" />
              <mxPoint x="1070" y="180" />
            </Array>
          </mxGeometry>
        </mxCell>
        <mxCell id="EBsP6sKBoB6UXxb4G_4H-29" value="Selector" style="rounded=1;whiteSpace=wrap;html=1;" vertex="1" parent="WIyWlLk6GJQsqaUBKTNV-1">
          <mxGeometry x="870" y="100" width="120" height="60" as="geometry" />
        </mxCell>
        <mxCell id="EBsP6sKBoB6UXxb4G_4H-34" value="&lt;div&gt;&amp;lt;&amp;lt;abstract&amp;gt;&amp;gt;&lt;/div&gt;Node" style="swimlane;fontStyle=1;align=center;verticalAlign=top;childLayout=stackLayout;horizontal=1;startSize=40;horizontalStack=0;resizeParent=1;resizeParentMax=0;resizeLast=0;collapsible=1;marginBottom=0;whiteSpace=wrap;html=1;" vertex="1" parent="WIyWlLk6GJQsqaUBKTNV-1">
          <mxGeometry x="1500" y="100" width="160" height="126" as="geometry" />
        </mxCell>
        <mxCell id="EBsP6sKBoB6UXxb4G_4H-52" value="+ tree : Tree" style="text;strokeColor=none;fillColor=none;align=left;verticalAlign=top;spacingLeft=4;spacingRight=4;overflow=hidden;rotatable=0;points=[[0,0.5],[1,0.5]];portConstraint=eastwest;whiteSpace=wrap;html=1;" vertex="1" parent="EBsP6sKBoB6UXxb4G_4H-34">
          <mxGeometry y="40" width="160" height="26" as="geometry" />
        </mxCell>
        <mxCell id="EBsP6sKBoB6UXxb4G_4H-51" value="+ blackboard : Blackboard" style="text;strokeColor=none;fillColor=none;align=left;verticalAlign=top;spacingLeft=4;spacingRight=4;overflow=hidden;rotatable=0;points=[[0,0.5],[1,0.5]];portConstraint=eastwest;whiteSpace=wrap;html=1;" vertex="1" parent="EBsP6sKBoB6UXxb4G_4H-34">
          <mxGeometry y="66" width="160" height="26" as="geometry" />
        </mxCell>
        <mxCell id="EBsP6sKBoB6UXxb4G_4H-36" value="" style="line;strokeWidth=1;fillColor=none;align=left;verticalAlign=middle;spacingTop=-1;spacingLeft=3;spacingRight=3;rotatable=0;labelPosition=right;points=[];portConstraint=eastwest;strokeColor=inherit;" vertex="1" parent="EBsP6sKBoB6UXxb4G_4H-34">
          <mxGeometry y="92" width="160" height="8" as="geometry" />
        </mxCell>
        <mxCell id="EBsP6sKBoB6UXxb4G_4H-37" value="+ Invoke() : Result" style="text;strokeColor=none;fillColor=none;align=left;verticalAlign=top;spacingLeft=4;spacingRight=4;overflow=hidden;rotatable=0;points=[[0,0.5],[1,0.5]];portConstraint=eastwest;whiteSpace=wrap;html=1;" vertex="1" parent="EBsP6sKBoB6UXxb4G_4H-34">
          <mxGeometry y="100" width="160" height="26" as="geometry" />
        </mxCell>
        <mxCell id="EBsP6sKBoB6UXxb4G_4H-38" value="«enum»&lt;div&gt;Result&lt;/div&gt;&lt;div&gt;&lt;br&gt;&lt;b&gt;Success,&lt;/b&gt;&lt;div&gt;&lt;b&gt;Failure&lt;/b&gt;&lt;/div&gt;&lt;div&gt;&lt;b&gt;Running&lt;/b&gt;&lt;/div&gt;&lt;/div&gt;" style="html=1;whiteSpace=wrap;" vertex="1" parent="WIyWlLk6GJQsqaUBKTNV-1">
          <mxGeometry x="1930" y="77.5" width="120" height="105" as="geometry" />
        </mxCell>
        <mxCell id="EBsP6sKBoB6UXxb4G_4H-39" value="Tree&lt;div&gt;&lt;/div&gt;" style="swimlane;fontStyle=1;align=center;verticalAlign=top;childLayout=stackLayout;horizontal=1;startSize=30;horizontalStack=0;resizeParent=1;resizeParentMax=0;resizeLast=0;collapsible=1;marginBottom=0;whiteSpace=wrap;html=1;" vertex="1" parent="WIyWlLk6GJQsqaUBKTNV-1">
          <mxGeometry x="1320" y="40" width="160" height="38" as="geometry" />
        </mxCell>
        <mxCell id="EBsP6sKBoB6UXxb4G_4H-41" value="" style="line;strokeWidth=1;fillColor=none;align=left;verticalAlign=middle;spacingTop=-1;spacingLeft=3;spacingRight=3;rotatable=0;labelPosition=right;points=[];portConstraint=eastwest;strokeColor=inherit;" vertex="1" parent="EBsP6sKBoB6UXxb4G_4H-39">
          <mxGeometry y="30" width="160" height="8" as="geometry" />
        </mxCell>
        <mxCell id="EBsP6sKBoB6UXxb4G_4H-43" value="" style="rounded=1;whiteSpace=wrap;html=1;" vertex="1" parent="WIyWlLk6GJQsqaUBKTNV-1">
          <mxGeometry x="1060" y="17" width="210" height="120" as="geometry" />
        </mxCell>
        <mxCell id="EBsP6sKBoB6UXxb4G_4H-45" value="Blackboard" style="rounded=1;whiteSpace=wrap;html=1;" vertex="1" parent="WIyWlLk6GJQsqaUBKTNV-1">
          <mxGeometry x="1107.5" width="115" height="30" as="geometry" />
        </mxCell>
        <mxCell id="EBsP6sKBoB6UXxb4G_4H-46" value="Actor" style="shape=umlActor;verticalLabelPosition=bottom;verticalAlign=top;html=1;outlineConnect=0;" vertex="1" parent="WIyWlLk6GJQsqaUBKTNV-1">
          <mxGeometry x="1160" y="47" width="30" height="60" as="geometry" />
        </mxCell>
        <mxCell id="EBsP6sKBoB6UXxb4G_4H-48" value="Blackboard&lt;div&gt;&lt;/div&gt;" style="swimlane;fontStyle=1;align=center;verticalAlign=top;childLayout=stackLayout;horizontal=1;startSize=30;horizontalStack=0;resizeParent=1;resizeParentMax=0;resizeLast=0;collapsible=1;marginBottom=0;whiteSpace=wrap;html=1;" vertex="1" parent="WIyWlLk6GJQsqaUBKTNV-1">
          <mxGeometry x="1320" y="95" width="160" height="64" as="geometry" />
        </mxCell>
        <mxCell id="EBsP6sKBoB6UXxb4G_4H-50" value="+ target : Transform" style="text;strokeColor=none;fillColor=none;align=left;verticalAlign=top;spacingLeft=4;spacingRight=4;overflow=hidden;rotatable=0;points=[[0,0.5],[1,0.5]];portConstraint=eastwest;whiteSpace=wrap;html=1;" vertex="1" parent="EBsP6sKBoB6UXxb4G_4H-48">
          <mxGeometry y="30" width="160" height="26" as="geometry" />
        </mxCell>
        <mxCell id="EBsP6sKBoB6UXxb4G_4H-49" value="" style="line;strokeWidth=1;fillColor=none;align=left;verticalAlign=middle;spacingTop=-1;spacingLeft=3;spacingRight=3;rotatable=0;labelPosition=right;points=[];portConstraint=eastwest;strokeColor=inherit;" vertex="1" parent="EBsP6sKBoB6UXxb4G_4H-48">
          <mxGeometry y="56" width="160" height="8" as="geometry" />
        </mxCell>
        <mxCell id="EBsP6sKBoB6UXxb4G_4H-53" value="Root&lt;div&gt;&lt;/div&gt;" style="swimlane;fontStyle=1;align=center;verticalAlign=top;childLayout=stackLayout;horizontal=1;startSize=26;horizontalStack=0;resizeParent=1;resizeParentMax=0;resizeLast=0;collapsible=1;marginBottom=0;whiteSpace=wrap;html=1;" vertex="1" parent="WIyWlLk6GJQsqaUBKTNV-1">
          <mxGeometry x="1720" y="100" width="160" height="34" as="geometry" />
        </mxCell>
        <mxCell id="EBsP6sKBoB6UXxb4G_4H-56" value="" style="line;strokeWidth=1;fillColor=none;align=left;verticalAlign=middle;spacingTop=-1;spacingLeft=3;spacingRight=3;rotatable=0;labelPosition=right;points=[];portConstraint=eastwest;strokeColor=inherit;" vertex="1" parent="EBsP6sKBoB6UXxb4G_4H-53">
          <mxGeometry y="26" width="160" height="8" as="geometry" />
        </mxCell>
        <mxCell id="EBsP6sKBoB6UXxb4G_4H-58" value="Execution&lt;div&gt;&lt;/div&gt;" style="swimlane;fontStyle=1;align=center;verticalAlign=top;childLayout=stackLayout;horizontal=1;startSize=26;horizontalStack=0;resizeParent=1;resizeParentMax=0;resizeLast=0;collapsible=1;marginBottom=0;whiteSpace=wrap;html=1;" vertex="1" parent="WIyWlLk6GJQsqaUBKTNV-1">
          <mxGeometry x="1720" y="160" width="160" height="60" as="geometry" />
        </mxCell>
        <mxCell id="EBsP6sKBoB6UXxb4G_4H-60" value="- execute : Func&amp;lt;Result&amp;gt;" style="text;strokeColor=none;fillColor=none;align=left;verticalAlign=top;spacingLeft=4;spacingRight=4;overflow=hidden;rotatable=0;points=[[0,0.5],[1,0.5]];portConstraint=eastwest;whiteSpace=wrap;html=1;" vertex="1" parent="EBsP6sKBoB6UXxb4G_4H-58">
          <mxGeometry y="26" width="160" height="26" as="geometry" />
        </mxCell>
        <mxCell id="EBsP6sKBoB6UXxb4G_4H-59" value="" style="line;strokeWidth=1;fillColor=none;align=left;verticalAlign=middle;spacingTop=-1;spacingLeft=3;spacingRight=3;rotatable=0;labelPosition=right;points=[];portConstraint=eastwest;strokeColor=inherit;" vertex="1" parent="EBsP6sKBoB6UXxb4G_4H-58">
          <mxGeometry y="52" width="160" height="8" as="geometry" />
        </mxCell>
        <mxCell id="EBsP6sKBoB6UXxb4G_4H-61" value="" style="endArrow=block;endSize=16;endFill=0;html=1;rounded=0;" edge="1" parent="WIyWlLk6GJQsqaUBKTNV-1" source="EBsP6sKBoB6UXxb4G_4H-53" target="EBsP6sKBoB6UXxb4G_4H-34">
          <mxGeometry width="160" relative="1" as="geometry">
            <mxPoint x="1540" y="210" as="sourcePoint" />
            <mxPoint x="1700" y="210" as="targetPoint" />
          </mxGeometry>
        </mxCell>
        <mxCell id="EBsP6sKBoB6UXxb4G_4H-62" value="" style="endArrow=block;endSize=16;endFill=0;html=1;rounded=0;" edge="1" parent="WIyWlLk6GJQsqaUBKTNV-1" source="EBsP6sKBoB6UXxb4G_4H-58" target="EBsP6sKBoB6UXxb4G_4H-34">
          <mxGeometry width="160" relative="1" as="geometry">
            <mxPoint x="1705" y="147" as="sourcePoint" />
            <mxPoint x="1670" y="155" as="targetPoint" />
          </mxGeometry>
        </mxCell>
        <mxCell id="EBsP6sKBoB6UXxb4G_4H-63" value="&lt;div&gt;&amp;lt;&amp;lt;abstract&amp;gt;&amp;gt;&lt;/div&gt;Composite&lt;div&gt;&lt;/div&gt;" style="swimlane;fontStyle=1;align=center;verticalAlign=top;childLayout=stackLayout;horizontal=1;startSize=40;horizontalStack=0;resizeParent=1;resizeParentMax=0;resizeLast=0;collapsible=1;marginBottom=0;whiteSpace=wrap;html=1;" vertex="1" parent="WIyWlLk6GJQsqaUBKTNV-1">
          <mxGeometry x="1720" y="240" width="160" height="100" as="geometry" />
        </mxCell>
        <mxCell id="EBsP6sKBoB6UXxb4G_4H-64" value="- children : List&amp;lt;Node&amp;gt;" style="text;strokeColor=none;fillColor=none;align=left;verticalAlign=top;spacingLeft=4;spacingRight=4;overflow=hidden;rotatable=0;points=[[0,0.5],[1,0.5]];portConstraint=eastwest;whiteSpace=wrap;html=1;" vertex="1" parent="EBsP6sKBoB6UXxb4G_4H-63">
          <mxGeometry y="40" width="160" height="26" as="geometry" />
        </mxCell>
        <mxCell id="EBsP6sKBoB6UXxb4G_4H-66" value="- currentChildIndex : int" style="text;strokeColor=none;fillColor=none;align=left;verticalAlign=top;spacingLeft=4;spacingRight=4;overflow=hidden;rotatable=0;points=[[0,0.5],[1,0.5]];portConstraint=eastwest;whiteSpace=wrap;html=1;" vertex="1" parent="EBsP6sKBoB6UXxb4G_4H-63">
          <mxGeometry y="66" width="160" height="26" as="geometry" />
        </mxCell>
        <mxCell id="EBsP6sKBoB6UXxb4G_4H-65" value="" style="line;strokeWidth=1;fillColor=none;align=left;verticalAlign=middle;spacingTop=-1;spacingLeft=3;spacingRight=3;rotatable=0;labelPosition=right;points=[];portConstraint=eastwest;strokeColor=inherit;" vertex="1" parent="EBsP6sKBoB6UXxb4G_4H-63">
          <mxGeometry y="92" width="160" height="8" as="geometry" />
        </mxCell>
        <mxCell id="EBsP6sKBoB6UXxb4G_4H-67" value="" style="endArrow=block;endSize=16;endFill=0;html=1;rounded=0;exitX=0.168;exitY=-0.009;exitDx=0;exitDy=0;exitPerimeter=0;" edge="1" parent="WIyWlLk6GJQsqaUBKTNV-1" source="EBsP6sKBoB6UXxb4G_4H-63" target="EBsP6sKBoB6UXxb4G_4H-34">
          <mxGeometry width="160" relative="1" as="geometry">
            <mxPoint x="1730" y="190" as="sourcePoint" />
            <mxPoint x="1670" y="183" as="targetPoint" />
          </mxGeometry>
        </mxCell>
        <mxCell id="EBsP6sKBoB6UXxb4G_4H-68" value="Sequence&lt;div&gt;&lt;/div&gt;&lt;div&gt;&lt;/div&gt;" style="swimlane;fontStyle=1;align=center;verticalAlign=top;childLayout=stackLayout;horizontal=1;startSize=30;horizontalStack=0;resizeParent=1;resizeParentMax=0;resizeLast=0;collapsible=1;marginBottom=0;whiteSpace=wrap;html=1;" vertex="1" parent="WIyWlLk6GJQsqaUBKTNV-1">
          <mxGeometry x="1950" y="240" width="180" height="38" as="geometry" />
        </mxCell>
        <mxCell id="EBsP6sKBoB6UXxb4G_4H-71" value="" style="line;strokeWidth=1;fillColor=none;align=left;verticalAlign=middle;spacingTop=-1;spacingLeft=3;spacingRight=3;rotatable=0;labelPosition=right;points=[];portConstraint=eastwest;strokeColor=inherit;" vertex="1" parent="EBsP6sKBoB6UXxb4G_4H-68">
          <mxGeometry y="30" width="180" height="8" as="geometry" />
        </mxCell>
        <mxCell id="EBsP6sKBoB6UXxb4G_4H-72" value="" style="endArrow=block;endSize=16;endFill=0;html=1;rounded=0;" edge="1" parent="WIyWlLk6GJQsqaUBKTNV-1" source="EBsP6sKBoB6UXxb4G_4H-68" target="EBsP6sKBoB6UXxb4G_4H-63">
          <mxGeometry width="160" relative="1" as="geometry">
            <mxPoint x="1757" y="249" as="sourcePoint" />
            <mxPoint x="1670" y="209" as="targetPoint" />
          </mxGeometry>
        </mxCell>
        <mxCell id="EBsP6sKBoB6UXxb4G_4H-73" value="Selector&lt;div&gt;&lt;/div&gt;&lt;div&gt;&lt;/div&gt;" style="swimlane;fontStyle=1;align=center;verticalAlign=top;childLayout=stackLayout;horizontal=1;startSize=30;horizontalStack=0;resizeParent=1;resizeParentMax=0;resizeLast=0;collapsible=1;marginBottom=0;whiteSpace=wrap;html=1;" vertex="1" parent="WIyWlLk6GJQsqaUBKTNV-1">
          <mxGeometry x="1950" y="290" width="180" height="38" as="geometry" />
        </mxCell>
        <mxCell id="EBsP6sKBoB6UXxb4G_4H-74" value="" style="line;strokeWidth=1;fillColor=none;align=left;verticalAlign=middle;spacingTop=-1;spacingLeft=3;spacingRight=3;rotatable=0;labelPosition=right;points=[];portConstraint=eastwest;strokeColor=inherit;" vertex="1" parent="EBsP6sKBoB6UXxb4G_4H-73">
          <mxGeometry y="30" width="180" height="8" as="geometry" />
        </mxCell>
        <mxCell id="EBsP6sKBoB6UXxb4G_4H-75" value="Parallel&lt;div&gt;&lt;/div&gt;&lt;div&gt;&lt;/div&gt;" style="swimlane;fontStyle=1;align=center;verticalAlign=top;childLayout=stackLayout;horizontal=1;startSize=30;horizontalStack=0;resizeParent=1;resizeParentMax=0;resizeLast=0;collapsible=1;marginBottom=0;whiteSpace=wrap;html=1;" vertex="1" parent="WIyWlLk6GJQsqaUBKTNV-1">
          <mxGeometry x="1950" y="340" width="180" height="64" as="geometry" />
        </mxCell>
        <mxCell id="EBsP6sKBoB6UXxb4G_4H-83" value="- successCountRequired : int" style="text;strokeColor=none;fillColor=none;align=left;verticalAlign=top;spacingLeft=4;spacingRight=4;overflow=hidden;rotatable=0;points=[[0,0.5],[1,0.5]];portConstraint=eastwest;whiteSpace=wrap;html=1;" vertex="1" parent="EBsP6sKBoB6UXxb4G_4H-75">
          <mxGeometry y="30" width="180" height="26" as="geometry" />
        </mxCell>
        <mxCell id="EBsP6sKBoB6UXxb4G_4H-76" value="" style="line;strokeWidth=1;fillColor=none;align=left;verticalAlign=middle;spacingTop=-1;spacingLeft=3;spacingRight=3;rotatable=0;labelPosition=right;points=[];portConstraint=eastwest;strokeColor=inherit;" vertex="1" parent="EBsP6sKBoB6UXxb4G_4H-75">
          <mxGeometry y="56" width="180" height="8" as="geometry" />
        </mxCell>
        <mxCell id="EBsP6sKBoB6UXxb4G_4H-77" value="" style="endArrow=block;endSize=16;endFill=0;html=1;rounded=0;" edge="1" parent="WIyWlLk6GJQsqaUBKTNV-1" source="EBsP6sKBoB6UXxb4G_4H-73" target="EBsP6sKBoB6UXxb4G_4H-63">
          <mxGeometry width="160" relative="1" as="geometry">
            <mxPoint x="1960" y="280" as="sourcePoint" />
            <mxPoint x="1890" y="289" as="targetPoint" />
          </mxGeometry>
        </mxCell>
        <mxCell id="EBsP6sKBoB6UXxb4G_4H-78" value="" style="endArrow=block;endSize=16;endFill=0;html=1;rounded=0;" edge="1" parent="WIyWlLk6GJQsqaUBKTNV-1" source="EBsP6sKBoB6UXxb4G_4H-75" target="EBsP6sKBoB6UXxb4G_4H-63">
          <mxGeometry width="160" relative="1" as="geometry">
            <mxPoint x="1960" y="312" as="sourcePoint" />
            <mxPoint x="1890" y="307" as="targetPoint" />
          </mxGeometry>
        </mxCell>
        <mxCell id="EBsP6sKBoB6UXxb4G_4H-79" value="자식들을 일련의 과정으로 취급.&lt;div&gt;자식 탐색중 자식이 하나라도 Failure 를 반환하면, 해당 일련의 과정은 실패했다라고 결정.&lt;/div&gt;" style="shape=note;whiteSpace=wrap;html=1;backgroundOutline=1;darkOpacity=0.05;size=12;align=left;" vertex="1" parent="WIyWlLk6GJQsqaUBKTNV-1">
          <mxGeometry x="2140" y="220" width="260" height="60" as="geometry" />
        </mxCell>
        <mxCell id="EBsP6sKBoB6UXxb4G_4H-80" value="자식하나를 선택하기위한 선택기.&lt;div&gt;자식 탐색중 어떤 자식이 Success를 반환하면,&lt;/div&gt;&lt;div&gt;탐색 종료하고 Succes 반환. 다 실패시 Failure.&lt;/div&gt;" style="shape=note;whiteSpace=wrap;html=1;backgroundOutline=1;darkOpacity=0.05;size=12;align=left;" vertex="1" parent="WIyWlLk6GJQsqaUBKTNV-1">
          <mxGeometry x="2140" y="292" width="260" height="60" as="geometry" />
        </mxCell>
        <mxCell id="EBsP6sKBoB6UXxb4G_4H-81" value="일단 모든 자식 탐색 (왼쪽에서 오른쪽으로)&amp;nbsp;&lt;div&gt;결과는 정책에 따라서 반환&amp;nbsp;&lt;/div&gt;" style="shape=note;whiteSpace=wrap;html=1;backgroundOutline=1;darkOpacity=0.05;size=12;align=left;" vertex="1" parent="WIyWlLk6GJQsqaUBKTNV-1">
          <mxGeometry x="2140" y="362" width="260" height="60" as="geometry" />
        </mxCell>
        <mxCell id="EBsP6sKBoB6UXxb4G_4H-84" value="Decorator&lt;div&gt;&lt;/div&gt;" style="swimlane;fontStyle=1;align=center;verticalAlign=top;childLayout=stackLayout;horizontal=1;startSize=26;horizontalStack=0;resizeParent=1;resizeParentMax=0;resizeLast=0;collapsible=1;marginBottom=0;whiteSpace=wrap;html=1;" vertex="1" parent="WIyWlLk6GJQsqaUBKTNV-1">
          <mxGeometry x="1720" y="362" width="160" height="86" as="geometry" />
        </mxCell>
        <mxCell id="EBsP6sKBoB6UXxb4G_4H-85" value="- child : Node" style="text;strokeColor=none;fillColor=none;align=left;verticalAlign=top;spacingLeft=4;spacingRight=4;overflow=hidden;rotatable=0;points=[[0,0.5],[1,0.5]];portConstraint=eastwest;whiteSpace=wrap;html=1;" vertex="1" parent="EBsP6sKBoB6UXxb4G_4H-84">
          <mxGeometry y="26" width="160" height="26" as="geometry" />
        </mxCell>
        <mxCell id="EBsP6sKBoB6UXxb4G_4H-87" value="- condition : Func&amp;lt;bool&amp;gt;" style="text;strokeColor=none;fillColor=none;align=left;verticalAlign=top;spacingLeft=4;spacingRight=4;overflow=hidden;rotatable=0;points=[[0,0.5],[1,0.5]];portConstraint=eastwest;whiteSpace=wrap;html=1;" vertex="1" parent="EBsP6sKBoB6UXxb4G_4H-84">
          <mxGeometry y="52" width="160" height="26" as="geometry" />
        </mxCell>
        <mxCell id="EBsP6sKBoB6UXxb4G_4H-86" value="" style="line;strokeWidth=1;fillColor=none;align=left;verticalAlign=middle;spacingTop=-1;spacingLeft=3;spacingRight=3;rotatable=0;labelPosition=right;points=[];portConstraint=eastwest;strokeColor=inherit;" vertex="1" parent="EBsP6sKBoB6UXxb4G_4H-84">
          <mxGeometry y="78" width="160" height="8" as="geometry" />
        </mxCell>
        <mxCell id="EBsP6sKBoB6UXxb4G_4H-88" value="" style="endArrow=block;endSize=16;endFill=0;html=1;rounded=0;" edge="1" parent="WIyWlLk6GJQsqaUBKTNV-1" source="EBsP6sKBoB6UXxb4G_4H-84" target="EBsP6sKBoB6UXxb4G_4H-34">
          <mxGeometry width="160" relative="1" as="geometry">
            <mxPoint x="1757" y="249" as="sourcePoint" />
            <mxPoint x="1670" y="209" as="targetPoint" />
          </mxGeometry>
        </mxCell>
        <mxCell id="EBsP6sKBoB6UXxb4G_4H-89" value="&lt;div&gt;currentChildIndex&lt;/div&gt;&lt;div&gt;{&lt;/div&gt;&lt;div&gt;&lt;span style=&quot;white-space: pre;&quot;&gt;&#x9;&lt;/span&gt;set&lt;br&gt;&lt;/div&gt;&lt;div&gt;&lt;span style=&quot;white-space: pre;&quot;&gt;&#x9;&lt;/span&gt;{&lt;br&gt;&lt;/div&gt;&lt;div&gt;&lt;span style=&quot;white-space: pre;&quot;&gt;&#x9;&lt;/span&gt;&lt;span style=&quot;white-space: pre;&quot;&gt;&#x9;&lt;/span&gt;if (value &amp;gt;= childCount)&amp;nbsp;&lt;br&gt;&lt;/div&gt;&lt;div&gt;&lt;span style=&quot;white-space: pre;&quot;&gt;&#x9;&lt;/span&gt;&lt;span style=&quot;white-space: pre;&quot;&gt;&#x9;&lt;/span&gt;{&lt;br&gt;&lt;/div&gt;&lt;div&gt;&lt;span style=&quot;white-space: pre;&quot;&gt;&#x9;&lt;/span&gt;&lt;span style=&quot;white-space: pre;&quot;&gt;&#x9;&lt;/span&gt;&lt;span style=&quot;white-space: pre;&quot;&gt;&#x9;&lt;/span&gt;children = children.Select(() =&amp;gt; new GUID);&lt;br&gt;&lt;/div&gt;&lt;div&gt;&lt;span style=&quot;white-space: pre;&quot;&gt;&#x9;&lt;/span&gt;&lt;span style=&quot;white-space: pre;&quot;&gt;&#x9;&lt;/span&gt;&lt;span style=&quot;white-space: pre;&quot;&gt;&#x9;&lt;/span&gt;currentchildindex = 0;&lt;br&gt;&lt;/div&gt;&lt;div&gt;&lt;span style=&quot;white-space: pre;&quot;&gt;&#x9;&lt;/span&gt;&lt;span style=&quot;white-space: pre;&quot;&gt;&#x9;&lt;/span&gt;}&lt;br&gt;&lt;/div&gt;&lt;div&gt;&lt;span style=&quot;white-space: pre;&quot;&gt;&#x9;&lt;/span&gt;}&lt;br&gt;&lt;/div&gt;&lt;div&gt;}&lt;/div&gt;&lt;div&gt;&lt;br&gt;&lt;/div&gt;Result Invoke()&lt;div&gt;{&lt;/div&gt;&lt;div&gt;&lt;span style=&quot;white-space: pre;&quot;&gt;&#x9;&lt;/span&gt;for (i = currentChildIndex, i &amp;lt; childCount, currentChildIndex++)&lt;br&gt;&lt;/div&gt;&lt;div&gt;&lt;span style=&quot;white-space: pre;&quot;&gt;&#x9;&lt;/span&gt;{&lt;br&gt;&lt;/div&gt;&lt;div&gt;&lt;span style=&quot;white-space: pre;&quot;&gt;&lt;span style=&quot;white-space: pre;&quot;&gt;&#x9;&lt;/span&gt;&lt;span style=&quot;white-space: pre;&quot;&gt;&#x9;&lt;/span&gt;result = &lt;/span&gt;children[i].Invoke();&lt;br&gt;&lt;/div&gt;&lt;div&gt;&lt;span style=&quot;white-space: pre;&quot;&gt;&#x9;&lt;/span&gt;&lt;span style=&quot;white-space: pre;&quot;&gt;&#x9;&lt;/span&gt;switch (result)&lt;br&gt;&lt;/div&gt;&lt;div&gt;&lt;span style=&quot;white-space: pre;&quot;&gt;&#x9;&lt;/span&gt;&lt;span style=&quot;white-space: pre;&quot;&gt;&#x9;&lt;/span&gt;&lt;span style=&quot;white-space: pre;&quot;&gt;&#x9;&lt;/span&gt;case success :&lt;/div&gt;&lt;div&gt;&lt;span style=&quot;white-space: pre;&quot;&gt;&#x9;&lt;/span&gt;&lt;span style=&quot;white-space: pre;&quot;&gt;&#x9;&lt;/span&gt;&lt;span style=&quot;white-space: pre;&quot;&gt;&#x9;&lt;/span&gt;case failure&lt;br&gt;&lt;/div&gt;&lt;div&gt;&lt;span style=&quot;white-space: pre;&quot;&gt;&#x9;&lt;/span&gt;&lt;span style=&quot;white-space: pre;&quot;&gt;&#x9;&lt;/span&gt;&lt;span style=&quot;white-space: pre;&quot;&gt;&#x9;&lt;/span&gt;&lt;span style=&quot;white-space: pre;&quot;&gt;&#x9;&lt;/span&gt;currentChildIndex = childcount;&lt;br&gt;&lt;/div&gt;&lt;div&gt;&lt;span style=&quot;white-space: pre;&quot;&gt;&#x9;&lt;/span&gt;&lt;span style=&quot;white-space: pre;&quot;&gt;&#x9;&lt;/span&gt;&lt;span style=&quot;white-space: pre;&quot;&gt;&#x9;&lt;/span&gt;&lt;span style=&quot;white-space: pre;&quot;&gt;&#x9;&lt;/span&gt;return result;&lt;br&gt;&lt;/div&gt;&lt;div&gt;&lt;span style=&quot;white-space: pre;&quot;&gt;&#x9;&lt;span style=&quot;white-space: pre;&quot;&gt;&#x9;&lt;/span&gt;&lt;span style=&quot;white-space: pre;&quot;&gt;&#x9;&lt;/span&gt;case &lt;/span&gt;running&lt;br&gt;&lt;/div&gt;&lt;div&gt;&lt;span style=&quot;white-space: pre;&quot;&gt;&#x9;&lt;/span&gt;&lt;span style=&quot;white-space: pre;&quot;&gt;&#x9;&lt;/span&gt;&lt;span style=&quot;white-space: pre;&quot;&gt;&#x9;&lt;/span&gt;&lt;span style=&quot;white-space: pre;&quot;&gt;&#x9;&lt;/span&gt;return result;&lt;/div&gt;&lt;div&gt;&lt;span style=&quot;white-space: pre;&quot;&gt;&#x9;&lt;/span&gt;}&lt;br&gt;&lt;/div&gt;&lt;div&gt;&lt;br&gt;&lt;/div&gt;&lt;div&gt;&lt;span style=&quot;white-space: pre;&quot;&gt;&#x9;&lt;/span&gt;currentChildIndex = childCount;&lt;br&gt;&lt;/div&gt;&lt;div&gt;&lt;span style=&quot;white-space: pre;&quot;&gt;&#x9;&lt;/span&gt;return result;&lt;br&gt;&lt;/div&gt;&lt;div&gt;&lt;br&gt;&lt;/div&gt;&lt;div&gt;}&lt;/div&gt;" style="rounded=0;whiteSpace=wrap;html=1;align=left;" vertex="1" parent="WIyWlLk6GJQsqaUBKTNV-1">
          <mxGeometry x="1940" y="560" width="370" height="470" as="geometry" />
        </mxCell>
        <mxCell id="EBsP6sKBoB6UXxb4G_4H-90" value="Selector(1)" style="rounded=0;whiteSpace=wrap;html=1;" vertex="1" parent="WIyWlLk6GJQsqaUBKTNV-1">
          <mxGeometry x="570" y="198.5" width="110" height="28.5" as="geometry" />
        </mxCell>
        <mxCell id="EBsP6sKBoB6UXxb4G_4H-91" value="Parallel(1)" style="rounded=0;whiteSpace=wrap;html=1;" vertex="1" parent="WIyWlLk6GJQsqaUBKTNV-1">
          <mxGeometry x="570" y="170" width="110" height="28.5" as="geometry" />
        </mxCell>
        <mxCell id="EBsP6sKBoB6UXxb4G_4H-92" value="Seek" style="rounded=0;whiteSpace=wrap;html=1;" vertex="1" parent="WIyWlLk6GJQsqaUBKTNV-1">
          <mxGeometry x="570" y="141.5" width="110" height="28.5" as="geometry" />
        </mxCell>
        <mxCell id="EBsP6sKBoB6UXxb4G_4H-94" value="&lt;div style=&quot;&quot;&gt;&lt;span style=&quot;background-color: initial;&quot;&gt;root.Select&lt;/span&gt;&lt;/div&gt;&lt;div style=&quot;&quot;&gt;&lt;span style=&quot;white-space: pre;&quot;&gt;&#x9;&lt;span style=&quot;white-space: pre;&quot;&gt;&#x9;&lt;/span&gt;&lt;/span&gt;Parallel&lt;br&gt;&lt;/div&gt;&lt;div style=&quot;&quot;&gt;&lt;span style=&quot;white-space: pre;&quot;&gt;&#x9;&lt;span style=&quot;white-space: pre;&quot;&gt;&#x9;&lt;/span&gt;&lt;/span&gt;&lt;span style=&quot;white-space: pre;&quot;&gt;&#x9;&lt;/span&gt;Seek&lt;br&gt;&lt;/div&gt;&lt;div style=&quot;&quot;&gt;&lt;span style=&quot;white-space: pre;&quot;&gt;&#x9;&lt;span style=&quot;white-space: pre;&quot;&gt;&#x9;&lt;/span&gt;&lt;/span&gt;&lt;span style=&quot;white-space: pre;&quot;&gt;&#x9;&lt;/span&gt;Decorator&lt;br&gt;&lt;/div&gt;&lt;div style=&quot;&quot;&gt;&lt;span style=&quot;white-space: pre;&quot;&gt;&#x9;&lt;/span&gt;&lt;span style=&quot;white-space: pre;&quot;&gt;&#x9;&lt;span style=&quot;white-space: pre;&quot;&gt;&#x9;&lt;/span&gt;&lt;/span&gt;&lt;span style=&quot;white-space: pre;&quot;&gt;&#x9;&lt;/span&gt;.Attack&lt;br&gt;&lt;/div&gt;&lt;div style=&quot;&quot;&gt;&lt;span style=&quot;white-space: pre;&quot;&gt;&#x9;&lt;/span&gt;&lt;span style=&quot;white-space: pre;&quot;&gt;&#x9;&lt;/span&gt;ExitComposite&lt;br&gt;&lt;/div&gt;&lt;div style=&quot;&quot;&gt;&lt;span style=&quot;white-space: pre;&quot;&gt;&#x9;&lt;/span&gt;&lt;span style=&quot;white-space: pre;&quot;&gt;&#x9;&lt;/span&gt;RandomSelector&lt;br&gt;&lt;/div&gt;&lt;div style=&quot;&quot;&gt;&lt;span style=&quot;white-space: pre;&quot;&gt;&#x9;&lt;/span&gt;&lt;span style=&quot;white-space: pre;&quot;&gt;&#x9;&lt;/span&gt;&lt;span style=&quot;white-space: pre;&quot;&gt;&#x9;&lt;/span&gt;Rest&lt;br&gt;&lt;/div&gt;&lt;div style=&quot;&quot;&gt;&lt;span style=&quot;white-space: pre;&quot;&gt;&#x9;&lt;/span&gt;&lt;span style=&quot;white-space: pre;&quot;&gt;&#x9;&lt;/span&gt;&lt;span style=&quot;white-space: pre;&quot;&gt;&#x9;&lt;/span&gt;Patrol&lt;br&gt;&lt;/div&gt;&lt;div style=&quot;&quot;&gt;&lt;span style=&quot;white-space: pre;&quot;&gt;&#x9;&lt;/span&gt;&lt;span style=&quot;white-space: pre;&quot;&gt;&#x9;&lt;/span&gt;ExitComposite&lt;br&gt;&lt;/div&gt;&lt;div style=&quot;&quot;&gt;&lt;span style=&quot;white-space: pre;&quot;&gt;&#x9;&lt;/span&gt;ExitComposite&lt;br&gt;&lt;/div&gt;" style="text;html=1;align=left;verticalAlign=middle;whiteSpace=wrap;rounded=0;" vertex="1" parent="WIyWlLk6GJQsqaUBKTNV-1">
          <mxGeometry x="770" y="-190" width="180" height="160" as="geometry" />
        </mxCell>
        <mxCell id="EBsP6sKBoB6UXxb4G_4H-95" value="Current" style="rounded=0;whiteSpace=wrap;html=1;" vertex="1" parent="WIyWlLk6GJQsqaUBKTNV-1">
          <mxGeometry x="720" y="40" width="100" height="20" as="geometry" />
        </mxCell>
        <mxCell id="EBsP6sKBoB6UXxb4G_4H-96" value="CompositeStack" style="rounded=0;whiteSpace=wrap;html=1;" vertex="1" parent="WIyWlLk6GJQsqaUBKTNV-1">
          <mxGeometry x="720" y="137" width="100" height="20" as="geometry" />
        </mxCell>
        <mxCell id="EBsP6sKBoB6UXxb4G_4H-98" value="Selector" style="rounded=0;whiteSpace=wrap;html=1;" vertex="1" parent="WIyWlLk6GJQsqaUBKTNV-1">
          <mxGeometry x="720" y="115" width="100" height="19" as="geometry" />
        </mxCell>
        <mxCell id="EBsP6sKBoB6UXxb4G_4H-103" value="Selector" style="rounded=0;whiteSpace=wrap;html=1;" vertex="1" parent="WIyWlLk6GJQsqaUBKTNV-1">
          <mxGeometry x="720" y="20" width="100" height="19" as="geometry" />
        </mxCell>
        <mxCell id="EBsP6sKBoB6UXxb4G_4H-104" value="«interface»&lt;div&gt;&lt;b&gt;IParentOfChild&lt;/b&gt;&lt;/div&gt;&lt;div&gt;&lt;b&gt;&lt;br&gt;&lt;/b&gt;&lt;/div&gt;&lt;div&gt;&lt;b&gt;child : Node&lt;/b&gt;&lt;/div&gt;" style="html=1;whiteSpace=wrap;" vertex="1" parent="WIyWlLk6GJQsqaUBKTNV-1">
          <mxGeometry x="1500" y="255" width="140" height="73" as="geometry" />
        </mxCell>
        <mxCell id="EBsP6sKBoB6UXxb4G_4H-105" value="«interface»&lt;div&gt;&lt;b&gt;IParentOfChildren&lt;/b&gt;&lt;/div&gt;&lt;div&gt;&lt;b&gt;&lt;br&gt;&lt;/b&gt;&lt;/div&gt;&lt;div&gt;&lt;b&gt;children : List&amp;lt;Node&amp;gt;&lt;/b&gt;&lt;/div&gt;" style="html=1;whiteSpace=wrap;" vertex="1" parent="WIyWlLk6GJQsqaUBKTNV-1">
          <mxGeometry x="1500" y="331" width="140" height="73" as="geometry" />
        </mxCell>
        <mxCell id="EBsP6sKBoB6UXxb4G_4H-106" value="" style="endArrow=block;endSize=16;endFill=0;html=1;rounded=0;fillColor=#dae8fc;strokeColor=#6c8ebf;" edge="1" parent="WIyWlLk6GJQsqaUBKTNV-1" source="EBsP6sKBoB6UXxb4G_4H-53" target="EBsP6sKBoB6UXxb4G_4H-104">
          <mxGeometry width="160" relative="1" as="geometry">
            <mxPoint x="1730" y="144" as="sourcePoint" />
            <mxPoint x="1670" y="156" as="targetPoint" />
            <Array as="points">
              <mxPoint x="1690" y="117" />
              <mxPoint x="1690" y="290" />
            </Array>
          </mxGeometry>
        </mxCell>
        <mxCell id="EBsP6sKBoB6UXxb4G_4H-107" value="" style="endArrow=block;endSize=16;endFill=0;html=1;rounded=0;fillColor=#f8cecc;strokeColor=#b85450;" edge="1" parent="WIyWlLk6GJQsqaUBKTNV-1" source="EBsP6sKBoB6UXxb4G_4H-63" target="EBsP6sKBoB6UXxb4G_4H-105">
          <mxGeometry width="160" relative="1" as="geometry">
            <mxPoint x="1730" y="127" as="sourcePoint" />
            <mxPoint x="1650" y="301" as="targetPoint" />
            <Array as="points">
              <mxPoint x="1700" y="290" />
              <mxPoint x="1700" y="370" />
            </Array>
          </mxGeometry>
        </mxCell>
        <mxCell id="EBsP6sKBoB6UXxb4G_4H-108" value="" style="endArrow=block;endSize=16;endFill=0;html=1;rounded=0;fillColor=#dae8fc;strokeColor=#6c8ebf;" edge="1" parent="WIyWlLk6GJQsqaUBKTNV-1" source="EBsP6sKBoB6UXxb4G_4H-84" target="EBsP6sKBoB6UXxb4G_4H-104">
          <mxGeometry width="160" relative="1" as="geometry">
            <mxPoint x="1730" y="127" as="sourcePoint" />
            <mxPoint x="1650" y="301" as="targetPoint" />
            <Array as="points">
              <mxPoint x="1690" y="405" />
              <mxPoint x="1690" y="290" />
            </Array>
          </mxGeometry>
        </mxCell>
      </root>
    </mxGraphModel>
  </diagram>
</mxfile>
